<svg version="1.1" id="Layer_1" xmlns="http://www.w3.org/2000/svg" xmlns:xlink="http://www.w3.org/1999/xlink" x="0px" y="0px"
	 width="100%" viewBox="0 0 512 512" enable-background="new 0 0 512 512" xml:space="preserve">
<path fill="#000000" opacity="1.000000" stroke="none" 
	d="
M57.000000,513.000000 
	C38.333336,513.000000 19.666668,513.000000 1.000003,513.000000 
	C1.000002,342.333344 1.000002,171.666687 1.000001,1.000025 
	C171.666641,1.000017 342.333282,1.000017 513.000000,1.000008 
	C513.000000,170.166641 513.002563,339.333282 512.958618,508.499908 
	C512.958252,510.000000 512.333374,511.499969 511.500122,512.559082 
	C510.666931,508.521759 510.441589,504.911438 509.981171,501.331360 
	C508.209198,487.553894 507.271240,473.588593 504.333008,460.060211 
	C499.748901,438.953888 491.636139,419.025757 480.735718,400.270447 
	C471.643616,384.626465 461.241364,369.982727 448.520935,357.094360 
	C441.883911,350.369751 435.131287,343.707092 427.928650,337.609711 
	C422.375061,332.908234 416.038666,329.131439 409.979309,324.698059 
	C409.624207,324.284607 409.340149,324.116608 408.956055,323.681641 
	C408.417938,323.371674 407.979797,323.328735 407.541687,323.285797 
	C407.821808,323.743195 408.101898,324.200623 408.511841,324.841858 
	C408.838867,325.256866 409.069336,325.448029 409.539215,325.861389 
	C426.174438,342.397522 440.186890,360.522675 451.383759,380.772888 
	C471.018585,416.283783 481.133789,454.311462 481.409851,494.926849 
	C481.439545,499.298309 480.501312,503.222137 476.906067,506.051392 
	C473.051880,509.084442 468.748779,509.854126 464.257141,507.770172 
	C459.437500,505.533966 457.349152,501.567596 456.877167,496.250336 
	C455.613342,482.011780 455.547424,467.444061 452.308167,453.640106 
	C432.441223,368.977692 380.348724,314.213867 296.991241,289.529327 
	C288.687225,287.070312 279.650055,286.362671 270.933441,286.239960 
	C263.316620,286.132751 255.675034,288.019958 248.039093,288.983948 
	C228.312256,291.474426 209.452972,297.224274 191.433105,305.347717 
	C160.490570,319.296661 133.589249,338.845001 111.542679,364.895935 
	C97.735046,381.211456 86.069984,398.788574 77.209221,418.300720 
	C63.528255,448.427307 56.387299,479.864960 57.000000,513.000000 
M341.807068,44.384987 
	C341.596924,44.585629 341.386810,44.786274 341.176666,44.986912 
	C341.481934,44.929077 341.787201,44.871243 341.611877,45.419823 
	C342.652374,46.713024 343.671509,48.024090 344.736542,49.296780 
	C364.524506,72.943336 375.453705,100.199799 376.790161,130.953186 
	C379.218506,186.832870 348.019745,237.474380 297.263550,260.987732 
	C296.191193,261.484497 295.181976,262.117523 293.497620,263.041016 
	C300.577454,264.965576 307.151703,265.878113 312.921722,268.536346 
	C320.624939,272.085175 327.074036,269.862396 333.845459,266.643005 
	C353.077118,257.499573 369.395477,244.788254 381.971954,227.501297 
	C391.885101,213.875214 399.107452,198.859360 402.872467,182.480362 
	C406.193481,168.032898 407.038239,153.341370 405.139374,138.441986 
	C403.567047,126.104591 400.554382,114.301514 395.493896,103.012962 
	C387.499451,85.179649 376.368591,69.615547 360.895233,57.524124 
	C354.957031,52.883801 348.324646,49.131840 341.807068,44.384987 
M292.301392,38.141056 
	C286.310883,35.684830 280.429657,32.888840 274.285004,30.911722 
	C271.078461,29.879982 267.263763,29.541924 263.971985,30.177084 
	C249.211655,33.025139 234.940063,37.212311 221.601868,44.626328 
	C205.252808,53.713932 191.584915,65.668816 180.843018,80.781242 
	C161.417557,108.110313 154.383408,138.528824 158.919907,171.808548 
	C161.818207,193.070496 170.230331,211.952820 182.754242,229.011612 
	C185.794128,233.152206 190.648911,236.556793 195.386459,238.751328 
	C215.885696,248.246979 237.417694,250.542404 259.752960,247.061096 
	C308.040253,239.534790 348.713898,196.197571 351.811218,147.497131 
	C354.884918,99.167816 334.860443,62.797909 292.301392,38.141056 
z"/>
<path fill="#8B71B5" opacity="1.000000" stroke="none" 
	d="
M57.468658,513.000000 
	C56.387299,479.864960 63.528255,448.427307 77.209221,418.300720 
	C86.069984,398.788574 97.735046,381.211456 111.542679,364.895935 
	C133.589249,338.845001 160.490570,319.296661 191.433105,305.347717 
	C209.452972,297.224274 228.312256,291.474426 248.039093,288.983948 
	C255.675034,288.019958 263.316620,286.132751 270.933441,286.239960 
	C279.650055,286.362671 288.687225,287.070312 296.991241,289.529327 
	C380.348724,314.213867 432.441223,368.977692 452.308167,453.640106 
	C455.547424,467.444061 455.613342,482.011780 456.877167,496.250336 
	C457.349152,501.567596 459.437500,505.533966 464.257141,507.770172 
	C468.748779,509.854126 473.051880,509.084442 476.906067,506.051392 
	C480.501312,503.222137 481.439545,499.298309 481.409851,494.926849 
	C481.133789,454.311462 471.018585,416.283783 451.383759,380.772888 
	C440.186890,360.522675 426.174438,342.397522 409.723755,325.702820 
	C409.702087,325.281952 410.050293,324.943542 410.050293,324.943542 
	C416.038666,329.131439 422.375061,332.908234 427.928650,337.609711 
	C435.131287,343.707092 441.883911,350.369751 448.520935,357.094360 
	C461.241364,369.982727 471.643616,384.626465 480.735718,400.270447 
	C491.636139,419.025757 499.748901,438.953888 504.333008,460.060211 
	C507.271240,473.588593 508.209198,487.553894 509.981171,501.331360 
	C510.441589,504.911438 510.666931,508.521759 511.000122,512.559082 
	C359.979095,513.000000 208.958206,513.000000 57.468658,513.000000 
M226.500000,445.078400 
	C241.818863,445.077820 257.137848,445.114777 272.456512,445.061340 
	C280.537231,445.033142 285.971802,440.070404 285.989380,432.896667 
	C286.007050,425.670593 280.716827,420.729584 272.515381,420.703674 
	C248.704819,420.628510 224.893661,420.624512 201.083160,420.709412 
	C192.897446,420.738586 187.775848,425.709381 187.879944,433.086456 
	C187.979813,440.164856 193.199112,444.986145 201.023300,445.058411 
	C209.181564,445.133728 217.341049,445.077240 226.500000,445.078400 
z"/>
<path fill="#EDC951" opacity="1.000000" stroke="none" 
	d="
M292.621521,38.326797 
	C334.860443,62.797909 354.884918,99.167816 351.811218,147.497131 
	C348.713898,196.197571 308.040253,239.534790 259.752960,247.061096 
	C237.417694,250.542404 215.885696,248.246979 195.386459,238.751328 
	C190.648911,236.556793 185.794128,233.152206 182.754242,229.011612 
	C170.230331,211.952820 161.818207,193.070496 158.919907,171.808548 
	C154.383408,138.528824 161.417557,108.110313 180.843018,80.781242 
	C191.584915,65.668816 205.252808,53.713932 221.601868,44.626328 
	C234.940063,37.212311 249.211655,33.025139 263.971985,30.177084 
	C267.263763,29.541924 271.078461,29.879982 274.285004,30.911722 
	C280.429657,32.888840 286.310883,35.684830 292.621521,38.326797 
z"/>
<path fill="#ECC851" opacity="1.000000" stroke="none" 
	d="
M342.008575,44.975090 
	C348.324646,49.131840 354.957031,52.883801 360.895233,57.524124 
	C376.368591,69.615547 387.499451,85.179649 395.493896,103.012962 
	C400.554382,114.301514 403.567047,126.104591 405.139374,138.441986 
	C407.038239,153.341370 406.193481,168.032898 402.872467,182.480362 
	C399.107452,198.859360 391.885101,213.875214 381.971954,227.501297 
	C369.395477,244.788254 353.077118,257.499573 333.845459,266.643005 
	C327.074036,269.862396 320.624939,272.085175 312.921722,268.536346 
	C307.151703,265.878113 300.577454,264.965576 293.497620,263.041016 
	C295.181976,262.117523 296.191193,261.484497 297.263550,260.987732 
	C348.019745,237.474380 379.218506,186.832870 376.790161,130.953186 
	C375.453705,100.199799 364.524506,72.943336 344.736542,49.296780 
	C343.671509,48.024090 342.652374,46.713024 341.834259,45.158623 
	C342.056641,44.897423 342.008575,44.975090 342.008575,44.975090 
z"/>
<path fill="#8B71B5" opacity="1.000000" stroke="none" 
	d="
M408.382019,324.658020 
	C408.101898,324.200623 407.821808,323.743195 407.541687,323.285797 
	C407.979797,323.328735 408.417938,323.371674 408.782593,323.854279 
	C408.709137,324.293945 408.382019,324.658020 408.382019,324.658020 
z"/>
<path fill="#ECC851" opacity="1.000000" stroke="none" 
	d="
M342.074554,44.855415 
	C341.787201,44.871243 341.481934,44.929077 341.176666,44.986916 
	C341.386810,44.786274 341.596924,44.585629 341.907837,44.680038 
	C342.008575,44.975090 342.056641,44.897423 342.074554,44.855415 
z"/>
<path fill="#8B71B5" opacity="1.000000" stroke="none" 
	d="
M408.882599,324.121277 
	C409.340149,324.116608 409.624207,324.284607 409.979309,324.698059 
	C410.050293,324.943542 409.702087,325.281952 409.517578,325.440552 
	C409.069336,325.448029 408.838867,325.256866 408.511841,324.841858 
	C408.382019,324.658020 408.709137,324.293945 408.882599,324.121277 
z"/>
<path fill="#010001" opacity="1.000000" stroke="none" 
	d="
M226.000000,445.078400 
	C217.341049,445.077240 209.181564,445.133728 201.023300,445.058411 
	C193.199112,444.986145 187.979813,440.164856 187.879944,433.086456 
	C187.775848,425.709381 192.897446,420.738586 201.083160,420.709412 
	C224.893661,420.624512 248.704819,420.628510 272.515381,420.703674 
	C280.716827,420.729584 286.007050,425.670593 285.989380,432.896667 
	C285.971802,440.070404 280.537231,445.033142 272.456512,445.061340 
	C257.137848,445.114777 241.818863,445.077820 226.000000,445.078400 
z"/>
</svg>